<svg xmlns="http://www.w3.org/2000/svg" width="900" height="500" viewBox="0 0 900 500" font-family="Helvetica,Arial,sans-serif" role="img" aria-labelledby="title desc">
  <title id="title">Hardest-six benchmark pairwise wins per task</title>
  <desc id="desc">In eighteen K equals three comparisons, plain Opus won two, Opus with Mythos won five, and eleven tied. Mythos had no regression tasks and directional net plus three.</desc>
  <rect width="900" height="500" rx="14" fill="#14151a"/>
  <text x="450" y="38" fill="#e6e6eb" font-size="20" font-weight="700" text-anchor="middle">Hardest-6: pairwise wins per task</text>
  <text x="450" y="62" fill="#9aa0ac" font-size="12" text-anchor="middle">plain Opus vs Opus + current Mythos overlay · blind Sonnet judge · position-swapped · K=3</text>

  <rect x="92" y="82" width="14" height="14" rx="3" fill="#8893a6"/>
  <text x="114" y="94" fill="#c7cad1" font-size="12">Plain Opus wins</text>
  <rect x="238" y="82" width="14" height="14" rx="3" fill="#8b5cf6"/>
  <text x="260" y="94" fill="#c7cad1" font-size="12">Mythos wins</text>
  <rect x="372" y="82" width="14" height="14" rx="3" fill="#566074"/>
  <text x="394" y="94" fill="#c7cad1" font-size="12">ties shown below</text>

  <line x1="74" y1="390" x2="826" y2="390" stroke="#9aa0ac" stroke-width="1.5"/>
  <line x1="74" y1="300" x2="826" y2="300" stroke="#2a2f3a"/>
  <line x1="74" y1="210" x2="826" y2="210" stroke="#2a2f3a"/>
  <line x1="74" y1="120" x2="826" y2="120" stroke="#2a2f3a"/>
  <text x="62" y="394" fill="#9aa0ac" font-size="11" text-anchor="end">0</text>
  <text x="62" y="304" fill="#9aa0ac" font-size="11" text-anchor="end">1</text>
  <text x="62" y="214" fill="#9aa0ac" font-size="11" text-anchor="end">2</text>
  <text x="62" y="124" fill="#9aa0ac" font-size="11" text-anchor="end">3</text>

  <rect x="98" y="388" width="32" height="2" rx="2" fill="#8893a6"/>
  <rect x="134" y="388" width="32" height="2" rx="2" fill="#8b5cf6"/>
  <text x="114" y="380" fill="#c7cad1" font-size="12" text-anchor="middle">0</text>
  <text x="150" y="380" fill="#c7cad1" font-size="12" text-anchor="middle">0</text>
  <text x="132" y="414" fill="#e6e6eb" font-size="12" text-anchor="middle">cursor</text>
  <text x="132" y="432" fill="#9aa0ac" font-size="11" text-anchor="middle">3 ties</text>

  <rect x="218" y="300" width="32" height="90" rx="4" fill="#8893a6"/>
  <rect x="254" y="300" width="32" height="90" rx="4" fill="#8b5cf6"/>
  <text x="234" y="292" fill="#e6e6eb" font-size="12" text-anchor="middle">1</text>
  <text x="270" y="292" fill="#e6e6eb" font-size="12" text-anchor="middle">1</text>
  <text x="252" y="414" fill="#e6e6eb" font-size="12" text-anchor="middle">int overflow</text>
  <text x="252" y="432" fill="#9aa0ac" font-size="11" text-anchor="middle">1 tie</text>

  <rect x="338" y="388" width="32" height="2" rx="2" fill="#8893a6"/>
  <rect x="374" y="210" width="32" height="180" rx="4" fill="#8b5cf6"/>
  <text x="354" y="380" fill="#c7cad1" font-size="12" text-anchor="middle">0</text>
  <text x="390" y="202" fill="#e6e6eb" font-size="12" font-weight="700" text-anchor="middle">2</text>
  <text x="372" y="414" fill="#f0eaff" font-size="12" font-weight="700" text-anchor="middle">SSRF</text>
  <text x="372" y="432" fill="#b9a3ff" font-size="11" text-anchor="middle">1 tie</text>

  <rect x="458" y="300" width="32" height="90" rx="4" fill="#8893a6"/>
  <rect x="494" y="300" width="32" height="90" rx="4" fill="#8b5cf6"/>
  <text x="474" y="292" fill="#e6e6eb" font-size="12" text-anchor="middle">1</text>
  <text x="510" y="292" fill="#e6e6eb" font-size="12" text-anchor="middle">1</text>
  <text x="492" y="414" fill="#e6e6eb" font-size="12" text-anchor="middle">JWT alg</text>
  <text x="492" y="432" fill="#9aa0ac" font-size="11" text-anchor="middle">1 tie</text>

  <rect x="578" y="388" width="32" height="2" rx="2" fill="#8893a6"/>
  <rect x="614" y="388" width="32" height="2" rx="2" fill="#8b5cf6"/>
  <text x="594" y="380" fill="#c7cad1" font-size="12" text-anchor="middle">0</text>
  <text x="630" y="380" fill="#c7cad1" font-size="12" text-anchor="middle">0</text>
  <text x="612" y="414" fill="#e6e6eb" font-size="12" text-anchor="middle">base rate</text>
  <text x="612" y="432" fill="#9aa0ac" font-size="11" text-anchor="middle">3 ties</text>

  <rect x="698" y="388" width="32" height="2" rx="2" fill="#8893a6"/>
  <rect x="734" y="300" width="32" height="90" rx="4" fill="#8b5cf6"/>
  <text x="714" y="380" fill="#c7cad1" font-size="12" text-anchor="middle">0</text>
  <text x="750" y="292" fill="#e6e6eb" font-size="12" text-anchor="middle">1</text>
  <text x="732" y="414" fill="#e6e6eb" font-size="12" text-anchor="middle">Simpson's</text>
  <text x="732" y="432" fill="#9aa0ac" font-size="11" text-anchor="middle">2 ties · noisy</text>

  <text x="74" y="468" fill="#c7cad1" font-size="12">18 comparisons · base wins 2 · Mythos wins 5 · ties 11</text>
  <text x="826" y="468" fill="#b9a3ff" font-size="15" font-weight="700" text-anchor="end">net +3 · regression tasks 0</text>
  <text x="450" y="489" fill="#737b8c" font-size="10.5" text-anchor="middle">Directional, not statistically powered · single judge · ±1 net is within noise</text>
</svg>
