<svg xmlns="http://www.w3.org/2000/svg" width="720" height="400" viewBox="0 0 720 400" font-family="Helvetica,Arial,sans-serif">
<rect width="720" height="400" fill="#14151a" rx="12"/>
<text x="360.0" y="34" fill="#e6e6eb" font-size="18" font-weight="700" text-anchor="middle">Mini-benchmark: total score per task (0-20, blind-judged)</text>

<rect x="60" y="50" width="14" height="14" rx="3" fill="#7c8798"/><text x="80" y="62" fill="#9aa0ac" font-size="12">Baseline Claude</text><rect x="210" y="50" width="14" height="14" rx="3" fill="#8b5cf6"/><text x="230" y="62" fill="#9aa0ac" font-size="12">Mythos 6</text>

<line x1="60" y1="340.0" x2="680" y2="340.0" stroke="#2a2f3a" stroke-width="1"/>
<text x="50" y="344.0" fill="#9aa0ac" font-size="11" text-anchor="end">0</text>
<line x1="60" y1="272.5" x2="680" y2="272.5" stroke="#2a2f3a" stroke-width="1"/>
<text x="50" y="276.5" fill="#9aa0ac" font-size="11" text-anchor="end">5</text>
<line x1="60" y1="205.0" x2="680" y2="205.0" stroke="#2a2f3a" stroke-width="1"/>
<text x="50" y="209.0" fill="#9aa0ac" font-size="11" text-anchor="end">10</text>
<line x1="60" y1="137.5" x2="680" y2="137.5" stroke="#2a2f3a" stroke-width="1"/>
<text x="50" y="141.5" fill="#9aa0ac" font-size="11" text-anchor="end">15</text>
<line x1="60" y1="70.0" x2="680" y2="70.0" stroke="#2a2f3a" stroke-width="1"/>
<text x="50" y="74.0" fill="#9aa0ac" font-size="11" text-anchor="end">20</text>
<rect x="89.4" y="97.0" width="43.4" height="243.0" rx="4" fill="#7c8798"/>
<rect x="142.2" y="83.5" width="43.4" height="256.5" rx="4" fill="#8b5cf6"/>
<text x="111.1" y="91.0" fill="#e6e6eb" font-size="12" text-anchor="middle">18</text>
<text x="163.9" y="77.5" fill="#e6e6eb" font-size="12" text-anchor="middle">19</text>
<text x="137.5" y="360.0" fill="#9aa0ac" font-size="12" text-anchor="middle">Task 1</text>
<rect x="244.4" y="83.5" width="43.4" height="256.5" rx="4" fill="#7c8798"/>
<rect x="297.1" y="83.5" width="43.4" height="256.5" rx="4" fill="#8b5cf6"/>
<text x="266.1" y="77.5" fill="#e6e6eb" font-size="12" text-anchor="middle">19</text>
<text x="318.8" y="77.5" fill="#e6e6eb" font-size="12" text-anchor="middle">19</text>
<text x="292.5" y="360.0" fill="#9aa0ac" font-size="12" text-anchor="middle">Task 2</text>
<rect x="399.5" y="97.0" width="43.4" height="243.0" rx="4" fill="#7c8798"/>
<rect x="452.1" y="83.5" width="43.4" height="256.5" rx="4" fill="#8b5cf6"/>
<text x="421.2" y="91.0" fill="#e6e6eb" font-size="12" text-anchor="middle">18</text>
<text x="473.8" y="77.5" fill="#e6e6eb" font-size="12" text-anchor="middle">19</text>
<text x="447.5" y="360.0" fill="#9aa0ac" font-size="12" text-anchor="middle">Task 3</text>
<rect x="554.5" y="97.0" width="43.4" height="243.0" rx="4" fill="#7c8798"/>
<rect x="607.1" y="110.5" width="43.4" height="229.5" rx="4" fill="#8b5cf6"/>
<text x="576.2" y="91.0" fill="#e6e6eb" font-size="12" text-anchor="middle">18</text>
<text x="628.9" y="104.5" fill="#e6e6eb" font-size="12" text-anchor="middle">17</text>
<text x="602.5" y="360.0" fill="#9aa0ac" font-size="12" text-anchor="middle">Task 4</text>
<line x1="60" y1="340.0" x2="680" y2="340.0" stroke="#9aa0ac" stroke-width="1.5"/>
<text x="360.0" y="386" fill="#9aa0ac" font-size="12" text-anchor="middle">avg baseline 18.25/20  ·  avg mythos 18.5/20  ·  n=4 tasks, single judge model — small illustrative sample, not a statistical benchmark</text>
</svg>