<svg xmlns="http://www.w3.org/2000/svg" width="720" height="380" viewBox="0 0 720 380" font-family="Helvetica,Arial,sans-serif">
<rect width="720" height="380" fill="#14151a" rx="12"/>
<text x="360.0" y="34" fill="#e6e6eb" font-size="18" font-weight="700" text-anchor="middle">Mini-benchmark: average score per dimension (0-5)</text>

<rect x="60" y="50" width="14" height="14" rx="3" fill="#7c8798"/><text x="80" y="62" fill="#9aa0ac" font-size="12">Baseline Claude</text><rect x="210" y="50" width="14" height="14" rx="3" fill="#8b5cf6"/><text x="230" y="62" fill="#9aa0ac" font-size="12">Mythos 6</text>

<line x1="60" y1="320.0" x2="680" y2="320.0" stroke="#2a2f3a" stroke-width="1"/>
<text x="50" y="324.0" fill="#9aa0ac" font-size="11" text-anchor="end">0</text>
<line x1="60" y1="270.0" x2="680" y2="270.0" stroke="#2a2f3a" stroke-width="1"/>
<text x="50" y="274.0" fill="#9aa0ac" font-size="11" text-anchor="end">1</text>
<line x1="60" y1="220.0" x2="680" y2="220.0" stroke="#2a2f3a" stroke-width="1"/>
<text x="50" y="224.0" fill="#9aa0ac" font-size="11" text-anchor="end">2</text>
<line x1="60" y1="170.0" x2="680" y2="170.0" stroke="#2a2f3a" stroke-width="1"/>
<text x="50" y="174.0" fill="#9aa0ac" font-size="11" text-anchor="end">3</text>
<line x1="60" y1="120.0" x2="680" y2="120.0" stroke="#2a2f3a" stroke-width="1"/>
<text x="50" y="124.0" fill="#9aa0ac" font-size="11" text-anchor="end">4</text>
<line x1="60" y1="70.0" x2="680" y2="70.0" stroke="#2a2f3a" stroke-width="1"/>
<text x="50" y="74.0" fill="#9aa0ac" font-size="11" text-anchor="end">5</text>
<rect x="89.4" y="70.0" width="43.4" height="250.0" rx="4" fill="#7c8798"/>
<rect x="142.2" y="70.0" width="43.4" height="250.0" rx="4" fill="#8b5cf6"/>
<text x="111.1" y="64.0" fill="#e6e6eb" font-size="12" text-anchor="middle">5.00</text>
<text x="163.9" y="64.0" fill="#e6e6eb" font-size="12" text-anchor="middle">5.00</text>
<text x="137.5" y="340.0" fill="#9aa0ac" font-size="12" text-anchor="middle">verification</text>
<rect x="244.4" y="82.5" width="43.4" height="237.5" rx="4" fill="#7c8798"/>
<rect x="297.1" y="82.5" width="43.4" height="237.5" rx="4" fill="#8b5cf6"/>
<text x="266.1" y="76.5" fill="#e6e6eb" font-size="12" text-anchor="middle">4.75</text>
<text x="318.8" y="76.5" fill="#e6e6eb" font-size="12" text-anchor="middle">4.75</text>
<text x="292.5" y="340.0" fill="#9aa0ac" font-size="12" text-anchor="middle">grounding</text>
<rect x="399.5" y="132.5" width="43.4" height="187.5" rx="4" fill="#7c8798"/>
<rect x="452.1" y="70.0" width="43.4" height="250.0" rx="4" fill="#8b5cf6"/>
<text x="421.2" y="126.5" fill="#e6e6eb" font-size="12" text-anchor="middle">3.75</text>
<text x="473.8" y="64.0" fill="#e6e6eb" font-size="12" text-anchor="middle">5.00</text>
<text x="447.5" y="340.0" fill="#9aa0ac" font-size="12" text-anchor="middle">completeness</text>
<rect x="554.5" y="82.5" width="43.4" height="237.5" rx="4" fill="#7c8798"/>
<rect x="607.1" y="132.5" width="43.4" height="187.5" rx="4" fill="#8b5cf6"/>
<text x="576.2" y="76.5" fill="#e6e6eb" font-size="12" text-anchor="middle">4.75</text>
<text x="628.9" y="126.5" fill="#e6e6eb" font-size="12" text-anchor="middle">3.75</text>
<text x="602.5" y="340.0" fill="#9aa0ac" font-size="12" text-anchor="middle">communication</text>
<line x1="60" y1="320.0" x2="680" y2="320.0" stroke="#9aa0ac" stroke-width="1.5"/>
<text x="360.0" y="366" fill="#9aa0ac" font-size="12" text-anchor="middle">Mythos 6 trades some communication concision for higher completeness — see benchmarks/METHODOLOGY.md</text>
</svg>